<?xml version="1.0" encoding="UTF-8"?>
<svg version="1.1" xmlns="http://www.w3.org/2000/svg" width="500" height="500">
<path d="M0 0 C0.59248535 0.30389648 1.1849707 0.60779297 1.79541016 0.92089844 C32.19829825 16.70686647 55.15994925 42.67619399 65.9765625 75.39453125 C68.89012565 85.65872509 71.63922451 96.2969937 72 107 C72.02578125 107.64453125 72.0515625 108.2890625 72.078125 108.953125 C73.22088912 141.17907325 63.66017889 174.53348406 42 199 C41.19046875 199.95261719 40.3809375 200.90523437 39.546875 201.88671875 C20.30692714 224.10427759 -7.87712278 239.65179264 -37 244 C-37.70125 244.11085938 -38.4025 244.22171875 -39.125 244.3359375 C-73.31490364 248.7283904 -107.8584616 239.48631102 -135.390625 218.84765625 C-147.55981541 209.4082214 -157.32775246 198.69571302 -166 186 C-166.59167969 185.15308594 -167.18335938 184.30617188 -167.79296875 183.43359375 C-184.68137956 157.3991803 -190.46440037 122.0768294 -184.40576172 91.84545898 C-183.97143202 89.88905139 -183.48605089 87.94420357 -183 86 C-182.83902832 85.35482422 -182.67805664 84.70964844 -182.51220703 84.04492188 C-174.64891874 53.61905708 -155.14063632 24.09537243 -127.9296875 7.71484375 C-126.96289062 7.14894531 -125.99609375 6.58304688 -125 6 C-123.93007812 5.34128906 -122.86015625 4.68257812 -121.7578125 4.00390625 C-85.62056443 -17.91600337 -37.55523494 -19.3604585 0 0 Z M-103.78515625 75.1015625 C-109.95848919 83.68659062 -111.46371805 92.73034446 -111.3984375 103.125 C-111.40130768 104.15254395 -111.40417786 105.18008789 -111.40713501 106.23876953 C-111.4091634 108.39681555 -111.40371999 110.55488047 -111.39111328 112.71289062 C-111.3750426 115.99130888 -111.39100454 119.26849449 -111.41015625 122.546875 C-111.4081736 124.65625269 -111.40432948 126.76562961 -111.3984375 128.875 C-111.40451019 129.84195801 -111.41058289 130.80891602 -111.4168396 131.80517578 C-111.29863454 143.4046293 -107.95350723 152.44474716 -100 161 C-90.63850939 168.59260431 -81.80082078 170.31172107 -70.0703125 170.30078125 C-68.52475174 170.30720894 -68.52475174 170.30720894 -66.94796753 170.31376648 C-64.77798189 170.31948469 -62.60797709 170.32002864 -60.43798828 170.31567383 C-57.14191544 170.3125162 -53.84674326 170.33599727 -50.55078125 170.36132812 C-48.43229279 170.3636018 -46.31380194 170.3643043 -44.1953125 170.36328125 C-43.22208038 170.372491 -42.24884827 170.38170074 -41.24612427 170.39118958 C-32.83228014 170.33510333 -24.88238336 168.84769156 -17.875 163.9375 C-17.12992187 163.43089844 -16.38484375 162.92429687 -15.6171875 162.40234375 C-15.08351563 161.93957031 -14.54984375 161.47679687 -14 161 C-14 160.34 -14 159.68 -14 159 C-13.34 159 -12.68 159 -12 159 C-10.50013043 157.33404056 -10.50013043 157.33404056 -9.0625 155.125 C-8.55847656 154.40570313 -8.05445313 153.68640625 -7.53515625 152.9453125 C-3.48407329 145.17300575 -2.54718415 137.53369272 -2.6015625 128.875 C-2.59869232 127.84745605 -2.59582214 126.81991211 -2.59286499 125.76123047 C-2.5908366 123.60318445 -2.59628001 121.44511953 -2.60888672 119.28710938 C-2.6249574 116.00869112 -2.60899546 112.73150551 -2.58984375 109.453125 C-2.5918264 107.34374731 -2.59567052 105.23437039 -2.6015625 103.125 C-2.59548981 102.15804199 -2.58941711 101.19108398 -2.5831604 100.19482422 C-2.66861843 91.80883419 -4.16919904 83.85827861 -9.0625 76.875 C-9.56910156 76.12992188 -10.07570313 75.38484375 -10.59765625 74.6171875 C-11.06042969 74.08351563 -11.52320313 73.54984375 -12 73 C-12.66 73 -13.32 73 -14 73 C-14 72.34 -14 71.68 -14 71 C-16.23200444 69.23831957 -16.23200444 69.23831957 -19.0625 67.5 C-20.00222656 66.8915625 -20.94195312 66.283125 -21.91015625 65.65625 C-28.94941746 61.88299241 -35.39008654 61.68112772 -43.234375 61.6640625 C-44.3081842 61.6574057 -45.38199341 61.6507489 -46.48834229 61.64389038 C-48.75425512 61.63379508 -51.02019751 61.62907239 -53.28613281 61.62939453 C-56.72511688 61.62503157 -60.16280595 61.58870509 -63.6015625 61.55078125 C-65.81249566 61.54491017 -68.02343485 61.54094273 -70.234375 61.5390625 C-71.24933044 61.52469147 -72.26428589 61.51032043 -73.30999756 61.49551392 C-85.40971519 61.57167156 -95.86061471 65.77245233 -103.78515625 75.1015625 Z " fill="#F8F8F8" transform="translate(307,134)"/>
<path d="M0 0 C0.66 0.33 1.32 0.66 2 1 C1.16855469 1.80824219 0.33710938 2.61648437 -0.51953125 3.44921875 C-1.61745459 4.52837417 -2.71509599 5.60781647 -3.8125 6.6875 C-4.35970703 7.21794922 -4.90691406 7.74839844 -5.47070312 8.29492188 C-8.55528803 11.34211787 -10.81879544 14.2227921 -13 18 C-15.6875 19.8125 -15.6875 19.8125 -18 21 C-16.36567879 17.01455003 -13.59476067 14.15508406 -10.6875 11.0625 C-10.21376953 10.55009766 -9.74003906 10.03769531 -9.25195312 9.50976562 C-6.23877938 6.26576051 -3.14775039 3.11334874 0 0 Z " fill="#636363" transform="translate(165,152)"/>
<path d="M0 0 C0.66 0.33 1.32 0.66 2 1 C-0.03631594 4.60271282 -1.22782934 6.65331113 -5.0625 8.375 C-8 9 -8 9 -11 9 C-3.70159453 2.66514806 -3.70159453 2.66514806 0 0 Z " fill="#7B7B7B" transform="translate(178,142)"/>
<path d="M0 0 C-3.00617269 3.00617269 -5.82381598 2.59585316 -10 3 C-6.84439813 -0.15560187 -4.30999015 -1.43666338 0 0 Z " fill="#6D6D6D" transform="translate(204,131)"/>
</svg>
